<svg width="200" height="100" viewBox="0 0 200 100" fill="none" xmlns="http://www.w3.org/2000/svg">
<rect width="200" height="100" rx="10" fill="#061860"/>
<path d="M35 21.5469V83H28.9531V21.5469H12.9219V15.7812H51.0312V21.5469H35Z" fill="#206BFF"/>
<path d="M86.9844 69.8281C86.9844 71.7656 86.6094 73.5938 85.8594 75.3125C85.1406 77.0312 84.1406 78.5312 82.8594 79.8125C81.5781 81.0938 80.0781 82.1094 78.3594 82.8594C76.6406 83.5781 74.8125 83.9375 72.875 83.9375H69.0312C67.0938 83.9375 65.2656 83.5781 63.5469 82.8594C61.8281 82.1094 60.3281 81.0938 59.0469 79.8125C57.7656 78.5312 56.75 77.0312 56 75.3125C55.2812 73.5938 54.9219 71.7656 54.9219 69.8281V48.1719C54.9219 46.2344 55.2812 44.4062 56 42.6875C56.75 40.9688 57.7656 39.4688 59.0469 38.1875C60.3281 36.9062 61.8281 35.9062 63.5469 35.1875C65.2656 34.4375 67.0938 34.0625 69.0312 34.0625H72.875C74.8125 34.0625 76.6406 34.4375 78.3594 35.1875C80.0781 35.9062 81.5781 36.9062 82.8594 38.1875C84.1406 39.4688 85.1406 40.9688 85.8594 42.6875C86.6094 44.4062 86.9844 46.2344 86.9844 48.1719V69.8281ZM81.2188 47.8438C81.2188 46.6875 81 45.6094 80.5625 44.6094C80.125 43.5781 79.5312 42.6875 78.7812 41.9375C78.0312 41.1875 77.1406 40.5938 76.1094 40.1562C75.1094 39.7188 74.0312 39.5 72.875 39.5H69.0312C67.875 39.5 66.7812 39.7188 65.75 40.1562C64.75 40.5938 63.875 41.1875 63.125 41.9375C62.375 42.6875 61.7812 43.5781 61.3438 44.6094C60.9062 45.6094 60.6875 46.6875 60.6875 47.8438V70.1562C60.6875 71.3125 60.9062 72.4062 61.3438 73.4375C61.7812 74.4375 62.375 75.3125 63.125 76.0625C63.875 76.8125 64.75 77.4062 65.75 77.8438C66.7812 78.2812 67.875 78.5 69.0312 78.5H72.875C74.0312 78.5 75.1094 78.2812 76.1094 77.8438C77.1406 77.4062 78.0312 76.8125 78.7812 76.0625C79.5312 75.3125 80.125 74.4375 80.5625 73.4375C81 72.4062 81.2188 71.3125 81.2188 70.1562V47.8438Z" fill="#206BFF"/>
<path d="M138.266 66.5C138.266 68.7812 137.828 70.9219 136.953 72.9219C136.109 74.9219 134.938 76.6719 133.438 78.1719C131.938 79.6719 130.172 80.8594 128.141 81.7344C126.141 82.5781 124 83 121.719 83H100.438V15.7812H121.719C124 15.7812 126.141 16.2188 128.141 17.0938C130.172 17.9375 131.938 19.1094 133.438 20.6094C134.938 22.1094 136.109 23.875 136.953 25.9062C137.828 27.9062 138.266 30.0469 138.266 32.3281V66.5ZM132.219 32.3281C132.219 30.8281 131.938 29.4375 131.375 28.1562C130.812 26.8438 130.031 25.7031 129.031 24.7344C128.062 23.7344 126.922 22.9531 125.609 22.3906C124.328 21.8281 122.938 21.5469 121.438 21.5469H106.484V77.2344H121.438C122.938 77.2344 124.328 76.9531 125.609 76.3906C126.922 75.8281 128.062 75.0625 129.031 74.0938C130.031 73.125 130.812 72 131.375 70.7188C131.938 69.4062 132.219 68 132.219 66.5V32.3281Z" fill="#206BFF"/>
<path d="M182.797 69.8281C182.797 71.7656 182.422 73.5938 181.672 75.3125C180.953 77.0312 179.953 78.5312 178.672 79.8125C177.391 81.0938 175.891 82.1094 174.172 82.8594C172.453 83.5781 170.625 83.9375 168.688 83.9375H164.844C162.906 83.9375 161.078 83.5781 159.359 82.8594C157.641 82.1094 156.141 81.0938 154.859 79.8125C153.578 78.5312 152.562 77.0312 151.812 75.3125C151.094 73.5938 150.734 71.7656 150.734 69.8281V48.1719C150.734 46.2344 151.094 44.4062 151.812 42.6875C152.562 40.9688 153.578 39.4688 154.859 38.1875C156.141 36.9062 157.641 35.9062 159.359 35.1875C161.078 34.4375 162.906 34.0625 164.844 34.0625H168.688C170.625 34.0625 172.453 34.4375 174.172 35.1875C175.891 35.9062 177.391 36.9062 178.672 38.1875C179.953 39.4688 180.953 40.9688 181.672 42.6875C182.422 44.4062 182.797 46.2344 182.797 48.1719V69.8281ZM177.031 47.8438C177.031 46.6875 176.812 45.6094 176.375 44.6094C175.938 43.5781 175.344 42.6875 174.594 41.9375C173.844 41.1875 172.953 40.5938 171.922 40.1562C170.922 39.7188 169.844 39.5 168.688 39.5H164.844C163.688 39.5 162.594 39.7188 161.562 40.1562C160.562 40.5938 159.688 41.1875 158.938 41.9375C158.188 42.6875 157.594 43.5781 157.156 44.6094C156.719 45.6094 156.5 46.6875 156.5 47.8438V70.1562C156.5 71.3125 156.719 72.4062 157.156 73.4375C157.594 74.4375 158.188 75.3125 158.938 76.0625C159.688 76.8125 160.562 77.4062 161.562 77.8438C162.594 78.2812 163.688 78.5 164.844 78.5H168.688C169.844 78.5 170.922 78.2812 171.922 77.8438C172.953 77.4062 173.844 76.8125 174.594 76.0625C175.344 75.3125 175.938 74.4375 176.375 73.4375C176.812 72.4062 177.031 71.3125 177.031 70.1562V47.8438Z" fill="#206BFF"/>
<path d="M166.56 68.2L166.88 61.8C167.52 59.9867 168.256 58.2267 169.088 56.52C169.92 54.792 170.795 53.16 171.712 51.624C172.629 50.0667 173.568 48.616 174.528 47.272C175.488 45.928 176.416 44.712 177.312 43.624C178.208 42.5147 179.04 41.5653 179.808 40.776C180.597 39.9653 181.269 39.3253 181.824 38.856L186.016 39.4C185.056 40.4667 184.011 41.7573 182.88 43.272C181.771 44.7653 180.651 46.4187 179.52 48.232C178.389 50.0453 177.291 51.9653 176.224 53.992C175.157 55.9973 174.187 58.056 173.312 60.168C172.437 62.28 171.701 64.392 171.104 66.504C170.528 68.5947 170.155 70.6213 169.984 72.584L162.88 72.04L156.32 55.4L161.696 54.76L166.56 68.2Z" fill="#206BFF"/>
</svg>
